<?xml version="1.0" standalone="no"?>
<!DOCTYPE svg PUBLIC "-//W3C//DTD SVG 20010904//EN"
 "http://www.w3.org/TR/2001/REC-SVG-20010904/DTD/svg10.dtd">
<svg version="1.0" xmlns="http://www.w3.org/2000/svg"
 width="5666.000000pt" height="1216.000000pt" viewBox="0 0 5666.000000 1216.000000"
 preserveAspectRatio="xMidYMid meet">

<g transform="translate(0.000000,1216.000000) scale(0.100000,-0.100000)"
fill="#000000" stroke="none">
<path d="M5806 12140 c-190 -10 -446 -40 -684 -80 -1652 -277 -3152 -1270
-4053 -2681 -477 -747 -800 -1609 -903 -2414 -55 -427 -72 -746 -57 -1090 28
-643 129 -1191 323 -1754 160 -467 406 -962 687 -1386 680 -1027 1702 -1844
2861 -2288 331 -127 506 -177 616 -177 167 0 274 42 391 153 77 73 808 873
850 930 28 38 31 105 6 136 -16 19 -37 24 -163 37 -1551 157 -2933 1113 -3635
2514 -498 994 -616 2131 -335 3218 291 1123 1018 2107 2023 2737 171 108 532
291 715 363 281 111 593 199 964 272 312 61 367 90 598 314 445 433 853 844
872 881 30 57 37 177 13 221 -23 43 -43 50 -210 73 -166 24 -624 35 -879 21z"/>
<path d="M7700 11854 c-147 -31 -150 -34 -682 -558 l-488 -481 0 -48 0 -48 63
-29 c47 -21 105 -35 237 -55 1826 -276 3296 -1592 3769 -3375 93 -350 139
-679 148 -1070 36 -1503 -675 -2927 -1910 -3823 -507 -369 -1130 -643 -1738
-766 -182 -37 -246 -58 -384 -126 -144 -71 -237 -148 -388 -321 -67 -77 -259
-290 -427 -473 -168 -183 -317 -350 -331 -371 -32 -48 -43 -107 -28 -163 18
-74 19 -74 180 -87 300 -25 777 -14 1134 26 1749 195 3353 1177 4335 2654 670
1007 1016 2165 1014 3385 -2 646 -111 1303 -319 1915 -434 1277 -1272 2363
-2395 3105 -408 270 -914 522 -1336 666 -178 60 -315 73 -454 43z"/>
<path d="M5406 9910 c-248 -29 -444 -98 -622 -221 -122 -84 -525 -430 -670
-574 -88 -87 -101 -96 -439 -290 -192 -109 -372 -215 -401 -235 -124 -84 -246
-194 -339 -306 -107 -130 -164 -232 -219 -396 -35 -104 -117 -402 -154 -559
-11 -47 -66 -195 -122 -330 -150 -360 -152 -370 -157 -679 -6 -365 -12 -342
215 -880 54 -130 126 -287 160 -350 61 -115 61 -116 91 -300 89 -537 211 -925
345 -1103 70 -93 204 -234 254 -269 26 -17 67 -49 91 -70 25 -21 139 -98 255
-170 234 -145 273 -173 427 -310 112 -98 339 -266 430 -316 75 -42 199 -84
364 -123 127 -30 153 -33 290 -32 91 1 207 9 295 21 80 12 258 33 397 49 l251
27 264 -32 c680 -83 714 -84 940 -36 163 34 265 67 371 120 97 49 327 218 484
357 140 123 192 160 370 267 186 112 339 219 423 297 80 74 221 248 264 327
102 184 199 539 277 1010 l30 178 88 177 c48 97 112 232 141 301 29 69 70 164
91 211 93 205 129 374 129 602 0 248 -31 390 -143 663 -133 324 -147 362 -163
454 -15 88 -31 149 -109 405 -41 137 -114 295 -180 395 -54 82 -207 245 -302
323 -64 52 -470 297 -736 444 -106 59 -139 85 -349 277 -290 264 -336 305
-423 370 -199 150 -435 259 -645 297 -116 21 -476 17 -615 -7 -127 -22 -236
-21 -422 1 -160 19 -423 27 -527 15z m444 -222 l34 -11 -63 -58 c-74 -68 -249
-187 -336 -229 -187 -89 -571 -235 -734 -279 -208 -56 -349 -87 -358 -77 -10
10 47 65 217 210 257 219 301 251 453 326 147 72 268 111 402 129 85 11 336 3
385 -11z m1145 -22 c195 -58 384 -167 589 -340 231 -194 315 -270 312 -281 -8
-27 -261 25 -482 100 -172 59 -571 222 -657 269 -124 68 -342 233 -342 260 0
21 54 25 270 22 205 -3 226 -5 310 -30z m-815 -104 c14 -9 58 -50 98 -89 194
-192 430 -322 866 -475 94 -33 207 -73 251 -88 124 -44 313 -80 505 -96 96 -7
180 -14 186 -14 6 0 22 -28 34 -62 35 -94 163 -347 248 -488 232 -388 498
-685 789 -881 99 -67 284 -179 296 -179 14 0 1 -41 -68 -215 -71 -178 -86
-227 -114 -366 -42 -206 -55 -367 -55 -709 0 -360 9 -474 55 -671 16 -70 29
-132 29 -138 0 -6 -96 -107 -214 -224 -185 -184 -228 -233 -326 -371 -108
-152 -282 -420 -347 -536 -57 -100 -120 -281 -169 -487 l-48 -203 -70 8 c-39
4 -195 7 -346 7 l-275 -1 -210 -48 c-333 -76 -721 -212 -897 -314 -56 -33
-136 -79 -177 -103 -71 -41 -74 -42 -100 -27 -331 196 -339 200 -576 281 -292
100 -386 127 -593 174 l-167 38 -295 0 c-162 0 -316 -3 -342 -7 l-47 -7 -21
57 c-12 31 -33 115 -47 186 -49 256 -136 441 -376 801 -201 301 -348 473 -587
687 l-85 75 18 84 c60 278 59 263 64 659 5 375 3 434 -33 725 -24 193 -47 267
-167 529 l-46 99 168 102 c207 124 263 168 416 326 206 213 429 497 557 710
64 105 171 321 198 399 13 36 28 71 35 78 7 8 60 16 146 22 268 18 474 64 768
171 429 155 648 267 822 421 112 99 209 178 217 178 4 0 18 -8 32 -18z m-2300
-915 c0 -24 -97 -191 -176 -303 -222 -316 -451 -588 -581 -691 -100 -80 -269
-193 -288 -193 -10 0 -10 12 0 63 18 91 52 211 80 278 35 87 155 284 219 361
52 61 172 166 235 206 14 9 76 48 136 88 111 73 354 214 368 214 4 0 7 -10 7
-23z m4581 2 c58 -29 360 -213 449 -272 94 -64 171 -136 274 -259 79 -94 129
-179 197 -340 32 -74 79 -248 79 -291 0 -25 -3 -27 -22 -21 -37 11 -320 219
-369 271 -118 123 -392 473 -504 643 -188 285 -201 319 -104 269z m-5736
-1833 c25 -71 53 -154 60 -185 74 -287 94 -1040 34 -1265 l-11 -39 -17 29
c-10 16 -30 63 -46 104 -15 41 -45 109 -65 150 -49 97 -136 329 -155 414 -42
182 -38 440 10 594 31 99 107 313 119 330 13 21 21 7 71 -132z m6935 82 c53
-123 111 -321 126 -430 36 -252 -15 -514 -161 -828 -29 -63 -67 -149 -84 -191
-35 -83 -56 -118 -66 -107 -17 17 -34 283 -35 538 0 307 23 584 60 730 20 78
91 283 112 323 14 27 24 20 48 -35z m-378 -2258 c-18 -99 -85 -367 -118 -472
-39 -123 -123 -292 -191 -383 -80 -107 -237 -254 -337 -315 -44 -27 -101 -63
-126 -79 -36 -24 -46 -28 -52 -17 -13 23 58 239 124 381 135 289 436 733 637
938 61 62 66 66 72 45 3 -13 -1 -57 -9 -98z m-6268 104 c18 -7 154 -162 272
-309 79 -100 290 -423 362 -555 75 -137 161 -362 181 -473 10 -58 15 -59 -113
22 -194 122 -285 201 -377 324 -68 90 -154 247 -199 362 -28 69 -150 575 -150
619 0 18 2 19 24 10z m1776 -1706 c185 -35 420 -90 510 -120 36 -11 157 -56
269 -99 334 -130 337 -143 29 -171 -323 -29 -438 -32 -556 -14 -227 35 -446
137 -652 303 -78 63 -127 110 -122 115 13 13 203 26 292 21 41 -3 145 -18 230
-35z m3170 24 l75 -7 -35 -32 c-161 -146 -234 -197 -384 -268 -243 -117 -407
-147 -676 -126 -74 5 -200 15 -280 22 -137 10 -190 24 -190 48 0 18 88 60 270
129 223 84 301 109 530 163 353 84 453 94 690 71z"/>
<path d="M15940 9454 c-19 -2 -78 -9 -130 -15 -620 -69 -1227 -374 -1673 -839
-498 -518 -796 -1200 -858 -1959 -15 -178 -6 -581 16 -741 87 -646 334 -1207
735 -1675 168 -195 357 -362 580 -510 354 -236 718 -375 1154 -441 140 -21
561 -30 723 -15 1021 96 1872 700 2328 1653 155 325 248 656 297 1058 17 139
17 632 0 770 -77 621 -272 1124 -612 1579 -273 364 -597 637 -999 840 -196 99
-362 162 -556 211 -252 65 -390 81 -700 85 -148 2 -286 1 -305 -1z m559 -1048
c408 -75 740 -270 1007 -589 284 -339 445 -737 495 -1222 17 -166 7 -483 -21
-645 -102 -614 -406 -1104 -875 -1413 -165 -108 -338 -178 -554 -224 -115 -25
-146 -27 -351 -28 -196 0 -240 3 -339 23 -330 67 -589 200 -834 431 -277 260
-488 647 -581 1062 -73 328 -75 753 -5 1090 153 739 662 1317 1304 1482 87 22
136 31 280 51 66 9 394 -3 474 -18z"/>
<path d="M52190 9386 c-89 -24 -163 -69 -246 -151 -115 -114 -153 -202 -154
-355 0 -93 18 -162 62 -239 18 -32 407 -555 864 -1162 456 -607 834 -1110 838
-1116 4 -8 -308 -440 -841 -1160 -495 -670 -863 -1178 -884 -1219 -99 -193
-68 -403 79 -553 97 -98 199 -141 332 -141 122 0 235 44 331 129 24 21 391
509 814 1084 424 575 773 1046 776 1047 4 0 359 -468 789 -1040 466 -619 804
-1060 836 -1089 104 -95 226 -138 369 -128 91 6 156 28 249 87 157 99 236 241
236 425 0 151 -38 237 -193 441 -62 82 -446 593 -854 1135 l-742 987 860 1133
c522 688 871 1158 889 1195 82 170 59 345 -66 504 -53 67 -98 103 -178 144
-59 30 -66 31 -186 31 -122 0 -127 -1 -194 -34 -44 -21 -94 -58 -137 -100 -43
-42 -340 -428 -824 -1071 -416 -553 -758 -1005 -760 -1005 -2 0 -348 459 -770
1020 -422 561 -783 1037 -803 1058 -55 58 -146 114 -219 137 -75 23 -201 26
-273 6z"/>
<path d="M20519 9366 c-179 -50 -342 -221 -378 -398 -8 -38 -11 -807 -9 -2648
l3 -2595 27 -69 c90 -232 293 -352 536 -318 190 27 332 146 394 331 l23 66 5
1839 5 1839 719 -1137 c776 -1228 744 -1182 888 -1269 92 -55 152 -70 267 -65
82 3 106 8 164 35 74 35 168 103 213 155 16 18 349 521 739 1116 l710 1083 5
-1798 5 -1798 23 -59 c62 -164 196 -286 362 -327 87 -22 251 -17 335 8 156 49
268 160 327 323 l23 65 0 2600 c0 2508 -1 2602 -19 2668 -35 128 -130 240
-263 309 -92 49 -159 62 -284 56 -92 -4 -112 -8 -174 -38 -138 -66 -119 -39
-1180 -1627 -731 -1094 -973 -1449 -981 -1440 -6 7 -430 658 -942 1447 -664
1023 -947 1453 -989 1496 -62 65 -182 133 -273 153 -61 14 -225 12 -281 -3z"/>
<path d="M27690 9374 c-153 -26 -247 -69 -332 -154 -65 -66 -121 -170 -138
-259 -7 -35 -10 -922 -10 -2610 0 -2768 -2 -2628 53 -2738 83 -164 228 -259
424 -278 284 -28 555 173 593 440 13 95 13 5052 0 5155 -25 187 -169 359 -352
419 -62 20 -189 34 -238 25z"/>
<path d="M30005 9370 c-196 -30 -378 -208 -414 -404 -8 -42 -11 -828 -11
-2635 0 -2201 2 -2586 15 -2644 51 -240 277 -388 533 -348 183 28 316 139 376
314 l21 62 5 1891 5 1890 1590 -2019 c1717 -2180 1618 -2062 1751 -2106 290
-96 569 -4 693 229 65 121 61 -72 61 2771 0 1692 -3 2605 -10 2640 -15 80 -67
177 -127 237 -127 127 -335 163 -528 91 -104 -39 -213 -164 -256 -294 -11 -32
-15 -399 -19 -1951 l-5 -1910 -1575 2010 c-866 1105 -1588 2025 -1603 2043
-33 38 -147 96 -229 117 -77 20 -200 27 -273 16z"/>
<path d="M36410 9374 c-153 -26 -247 -69 -332 -154 -65 -66 -121 -170 -138
-259 -7 -35 -10 -922 -10 -2610 0 -2768 -2 -2628 53 -2738 83 -164 228 -259
424 -278 284 -28 555 173 593 440 13 95 13 5052 0 5155 -25 187 -169 359 -352
419 -62 20 -189 34 -238 25z"/>
<path d="M38342 9369 c-281 -41 -456 -277 -414 -561 27 -186 132 -315 317
-389 l60 -24 750 -5 750 -5 5 -2335 5 -2335 23 -55 c62 -148 186 -257 347
-306 89 -27 267 -25 360 4 166 51 284 157 348 314 l22 53 5 2330 5 2330 750 5
c698 5 753 6 800 23 190 71 301 201 327 385 36 260 -98 473 -352 559 -53 17
-139 18 -2050 19 -1152 1 -2022 -2 -2058 -7z"/>
<path d="M44145 9369 c-195 -28 -378 -207 -414 -403 -14 -79 -16 -5129 -1
-5205 16 -86 58 -160 135 -236 181 -181 481 -246 683 -147 101 49 198 182 233
317 9 38 13 262 16 948 l4 897 812 0 c447 -1 858 -5 915 -10 139 -12 220 -34
328 -85 210 -101 344 -326 344 -579 1 -282 39 -570 101 -761 66 -205 148 -349
276 -485 139 -148 267 -229 428 -270 243 -62 461 -19 585 117 131 143 154 316
66 498 -45 93 -89 142 -189 208 -45 30 -95 70 -109 89 -54 71 -81 172 -103
388 -61 592 -106 755 -275 1009 -71 106 -210 255 -299 321 -33 25 -60 47 -60
50 0 3 30 25 67 50 82 55 263 228 345 330 93 115 181 255 247 391 112 233 157
413 167 659 21 546 -156 1024 -516 1394 -300 308 -653 480 -1062 516 -140 12
-2637 11 -2724 -1z m2616 -989 c239 -44 471 -315 545 -635 28 -121 26 -422 -4
-562 -54 -248 -151 -447 -290 -595 -76 -80 -141 -123 -223 -149 -58 -18 -107
-19 -1025 -19 l-964 0 0 985 0 985 954 0 c592 0 974 -4 1007 -10z"/>
<path d="M50130 9374 c-153 -26 -247 -69 -332 -154 -65 -66 -121 -170 -138
-259 -7 -35 -10 -922 -10 -2610 0 -2768 -2 -2628 53 -2738 83 -164 228 -259
424 -278 284 -28 555 173 593 440 13 95 13 5052 0 5155 -25 187 -169 359 -352
419 -62 20 -189 34 -238 25z"/>
</g>
</svg>
