<?xml version="1.0" standalone="no"?>
<!DOCTYPE svg PUBLIC "-//W3C//DTD SVG 20010904//EN"
 "http://www.w3.org/TR/2001/REC-SVG-20010904/DTD/svg10.dtd">
<svg version="1.0" xmlns="http://www.w3.org/2000/svg"
 width="5666.000000pt" height="1216.000000pt" viewBox="0 0 5666.000000 1216.000000"
 preserveAspectRatio="xMidYMid meet">

<g transform="translate(0.000000,1216.000000) scale(0.100000,-0.100000)"
fill="#000000" stroke="none">
<path d="M5715 12139 c-1357 -108 -2599 -636 -3600 -1530 -1104 -986 -1818
-2370 -1974 -3827 -56 -512 -56 -880 0 -1380 175 -1594 996 -3064 2274 -4070
563 -443 1161 -760 1890 -1003 183 -60 194 -63 290 -63 175 0 292 50 418 179
163 166 823 898 840 932 23 43 16 91 -16 120 -18 16 -46 23 -147 32 -916 87
-1809 470 -2529 1084 -136 116 -372 352 -488 488 -535 627 -892 1377 -1037
2179 -91 503 -93 1087 -5 1600 254 1475 1232 2747 2599 3380 359 166 679 266
1171 364 314 63 378 95 574 285 530 514 898 885 916 924 25 56 27 186 3 223
-24 36 -38 41 -180 65 -114 19 -175 22 -509 24 -209 2 -429 -1 -490 -6z"/>
<path d="M7767 11869 c-82 -11 -174 -41 -230 -76 -23 -14 -168 -150 -322 -302
-154 -152 -373 -368 -487 -480 -197 -193 -208 -205 -208 -240 0 -71 66 -102
291 -136 300 -46 508 -95 772 -181 1087 -357 1981 -1083 2552 -2074 476 -825
682 -1783 589 -2730 -133 -1344 -842 -2553 -1951 -3326 -501 -349 -1130 -618
-1691 -724 -136 -25 -290 -77 -392 -132 -125 -66 -214 -142 -355 -303 -72 -82
-241 -269 -375 -415 -372 -404 -405 -443 -418 -487 -17 -57 -15 -101 7 -150
23 -49 18 -48 239 -63 413 -27 949 2 1382 76 1648 282 3097 1224 4027 2619
558 836 900 1817 990 2835 27 306 24 791 -5 1084 -116 1140 -513 2168 -1183
3062 -692 925 -1641 1637 -2717 2040 -264 99 -373 121 -515 103z"/>
<path d="M5395 9913 c-173 -22 -348 -74 -475 -139 -103 -53 -252 -164 -426
-316 -71 -62 -174 -152 -229 -200 -55 -48 -130 -118 -166 -155 -58 -61 -99
-87 -370 -242 -430 -247 -463 -267 -574 -358 -233 -189 -369 -380 -448 -628
-35 -111 -124 -435 -141 -520 -19 -89 -26 -108 -129 -355 -153 -369 -171 -453
-164 -765 5 -233 22 -326 87 -476 18 -41 67 -157 109 -259 112 -266 134 -314
191 -420 50 -92 53 -100 86 -292 94 -551 211 -924 346 -1103 76 -100 187 -218
245 -260 31 -22 78 -59 107 -83 28 -24 121 -86 206 -139 246 -152 310 -197
405 -280 135 -119 200 -171 320 -258 197 -141 294 -183 575 -245 140 -32 151
-33 300 -27 85 3 180 10 210 16 30 6 199 27 375 47 l320 36 155 -21 c295 -40
692 -81 785 -81 175 0 466 71 631 155 89 44 254 163 398 285 217 184 297 243
442 330 309 185 442 293 596 484 86 107 136 197 191 346 62 169 157 574 198
848 l20 134 99 201 c88 180 126 266 256 575 129 306 135 699 14 1031 -21 58
-77 201 -124 317 -54 133 -89 237 -96 280 -18 115 -29 152 -140 499 -37 114
-83 210 -149 310 -52 79 -235 272 -326 345 -59 47 -411 259 -696 418 -142 80
-152 88 -420 333 -151 138 -315 282 -366 320 -229 174 -464 277 -700 309 -118
16 -484 7 -598 -14 -107 -21 -195 -20 -405 4 -160 18 -434 25 -525 13z m407
-222 c32 -4 61 -11 65 -15 21 -21 -224 -202 -372 -275 -127 -63 -517 -222
-627 -255 -124 -38 -407 -106 -440 -106 -15 0 -28 4 -28 9 0 12 105 106 317
283 322 268 561 366 893 366 74 0 161 -3 192 -7z m1014 -1 c61 -5 140 -16 175
-25 70 -18 244 -98 359 -165 70 -41 352 -270 490 -399 l65 -60 -47 -1 c-58 0
-339 70 -478 120 -178 64 -491 190 -575 232 -149 75 -380 245 -380 280 0 23
217 33 391 18z m-556 -204 c232 -220 442 -337 857 -481 87 -30 199 -70 250
-89 121 -47 360 -95 536 -107 205 -14 191 -8 223 -92 82 -217 303 -596 479
-822 216 -277 415 -453 727 -641 l127 -76 -28 -77 c-16 -42 -47 -121 -69 -176
-118 -286 -158 -597 -149 -1128 6 -330 15 -415 62 -604 l27 -110 -220 -219
c-233 -233 -321 -344 -520 -655 -201 -316 -234 -390 -312 -704 -37 -152 -61
-229 -69 -227 -7 1 -105 7 -219 14 -272 15 -415 4 -657 -51 -233 -53 -317 -78
-560 -166 -224 -81 -271 -103 -462 -217 -74 -43 -137 -78 -141 -76 -4 2 -68
40 -143 84 -195 117 -213 126 -502 225 -276 94 -362 119 -597 169 -135 30
-160 32 -360 33 -118 1 -265 -2 -327 -6 l-112 -8 -16 37 c-8 20 -29 105 -46
188 -35 174 -79 299 -156 446 -108 206 -348 561 -493 730 -49 58 -90 108 -90
111 0 4 -70 69 -155 145 -85 76 -155 140 -155 143 0 3 16 82 35 174 19 93 39
223 45 290 16 169 8 672 -13 862 -33 292 -62 399 -163 617 -35 75 -64 141 -64
146 0 5 64 47 142 93 198 117 272 175 433 340 208 213 389 439 532 664 78 123
195 353 228 448 32 89 21 83 175 92 125 7 359 46 485 79 129 35 465 157 632
231 263 116 312 148 584 377 57 48 108 88 112 88 4 0 52 -42 107 -94z m2345
-924 c350 -208 416 -258 549 -411 100 -115 128 -160 197 -311 44 -98 109 -310
109 -356 0 -31 -43 -9 -200 104 -178 127 -177 125 -479 497 -126 154 -358 503
-376 563 -6 22 -5 23 17 17 12 -4 95 -50 183 -103z m-4725 86 c0 -34 -166
-293 -309 -483 -184 -245 -340 -424 -436 -500 -81 -65 -261 -189 -289 -198
-17 -7 -18 -3 -12 38 4 25 23 100 42 168 36 124 92 244 180 380 53 81 182 218
256 270 185 131 518 335 551 336 9 1 17 -4 17 -11z m-1178 -1778 c90 -234 110
-338 138 -711 16 -214 17 -291 10 -466 -8 -184 -27 -333 -43 -350 -7 -6 -40
59 -57 112 -7 22 -29 74 -50 115 -56 114 -139 331 -167 439 -50 194 -42 483
18 651 17 47 46 131 66 188 19 57 40 101 45 100 6 -2 24 -37 40 -78z m6952 33
c40 -81 114 -324 127 -417 18 -138 7 -360 -24 -476 -31 -119 -87 -271 -138
-375 -21 -44 -58 -127 -82 -184 -24 -58 -48 -106 -53 -108 -39 -13 -51 700
-18 1022 21 213 39 282 145 563 5 12 11 22 14 22 2 0 15 -21 29 -47z m-6564
-2238 c140 -158 278 -341 393 -520 181 -284 263 -452 322 -655 42 -141 43
-141 -87 -59 -217 137 -323 234 -419 382 -50 77 -134 242 -163 320 -28 73
-136 540 -136 586 0 42 11 35 90 -54z m6200 53 c0 -17 -16 -103 -36 -192 -76
-341 -147 -537 -250 -693 -60 -91 -228 -268 -299 -314 -22 -14 -86 -56 -142
-92 l-103 -67 0 29 c0 50 68 244 135 385 67 141 216 389 337 559 129 182 326
417 349 417 5 0 9 -14 9 -32z m-4472 -1687 c357 -72 458 -101 757 -218 202
-79 245 -100 245 -119 0 -20 -27 -25 -208 -39 -95 -8 -219 -19 -276 -25 -122
-12 -296 1 -413 31 -87 22 -215 75 -323 132 -85 46 -344 247 -333 258 12 12
113 17 263 14 103 -2 172 -11 288 -34z m3105 32 c53 -3 97 -9 97 -14 0 -10
-172 -156 -233 -198 -87 -59 -308 -160 -412 -187 -165 -43 -421 -43 -830 2
-47 5 -75 18 -75 33 0 14 79 51 241 115 216 84 353 126 589 180 314 72 412 83
623 69z"/>
<path d="M15962 9460 c-582 -49 -1073 -238 -1532 -590 -122 -94 -396 -368
-490 -490 -206 -269 -352 -531 -468 -840 -287 -767 -278 -1673 25 -2435 163
-410 384 -746 689 -1047 156 -154 249 -230 419 -344 375 -250 784 -399 1250
-455 158 -20 557 -17 718 5 514 67 954 246 1367 554 129 97 399 360 504 492
372 468 605 1045 671 1665 21 198 21 562 0 759 -82 766 -411 1449 -941 1956
-372 356 -858 611 -1359 715 -252 52 -614 75 -853 55z m513 -1056 c557 -79
1027 -445 1305 -1018 158 -324 224 -631 223 -1041 0 -400 -67 -705 -227 -1030
-152 -309 -335 -532 -588 -718 -206 -151 -422 -243 -677 -289 -165 -29 -467
-29 -632 0 -445 80 -827 332 -1101 727 -91 131 -215 381 -266 537 -45 138 -84
312 -103 463 -20 148 -17 531 5 680 125 872 676 1525 1414 1675 200 40 428 45
647 14z"/>
<path d="M52214 9395 c-161 -35 -318 -163 -388 -315 -35 -76 -50 -184 -38
-263 20 -128 42 -163 297 -502 132 -176 515 -684 850 -1130 334 -445 612 -815
616 -821 6 -7 -314 -448 -847 -1170 -523 -708 -867 -1182 -884 -1219 -40 -86
-53 -159 -48 -256 6 -115 46 -199 139 -292 188 -189 471 -189 667 -1 40 38
328 421 813 1079 413 561 756 1025 763 1032 8 10 185 -219 771 -999 418 -556
787 -1040 819 -1076 100 -107 185 -153 315 -172 121 -17 246 18 368 102 147
101 213 228 213 413 0 99 -17 175 -53 245 -14 26 -408 557 -877 1180 -674 895
-850 1136 -844 1150 5 9 387 515 849 1123 462 609 855 1134 873 1167 92 164
82 342 -27 497 -57 80 -115 134 -184 169 -187 96 -394 58 -552 -101 -22 -22
-377 -488 -789 -1035 -412 -547 -756 -1003 -766 -1014 -17 -18 -45 18 -787
1006 -510 677 -791 1042 -831 1080 -72 67 -142 103 -237 123 -84 18 -121 18
-201 0z"/>
<path d="M20565 9380 c-198 -43 -359 -186 -415 -368 -20 -63 -20 -99 -20
-2656 0 -2837 -4 -2637 58 -2764 34 -71 141 -181 205 -211 72 -35 144 -51 227
-51 239 0 424 144 485 376 13 51 15 288 15 1878 0 1526 2 1818 13 1806 8 -8
328 -512 711 -1120 486 -769 714 -1121 750 -1158 226 -232 512 -239 742 -17
65 62 149 185 774 1140 386 589 705 1074 711 1079 5 6 9 -662 9 -1765 0 -1561
2 -1782 15 -1834 48 -182 191 -322 380 -370 124 -31 297 -14 413 43 73 35 168
129 209 208 67 127 63 -76 63 2764 0 2811 4 2624 -56 2742 -15 29 -51 78 -82
110 -171 180 -418 227 -632 120 -112 -56 -126 -76 -1150 -1607 -534 -797 -973
-1451 -977 -1452 -5 -1 -433 653 -953 1453 -980 1510 -983 1514 -1091 1577
-114 67 -294 101 -404 77z"/>
<path d="M27650 9373 c-202 -34 -375 -188 -425 -380 -22 -85 -22 -5199 0
-5282 35 -134 142 -269 255 -324 113 -54 258 -72 382 -46 198 41 377 215 417
407 8 38 11 781 11 2610 0 2815 4 2620 -62 2744 -38 72 -153 183 -228 220
-100 50 -238 70 -350 51z"/>
<path d="M29966 9365 c-174 -44 -318 -185 -370 -364 -14 -49 -16 -304 -16
-2665 0 -2809 -3 -2652 50 -2761 29 -59 111 -149 167 -182 136 -79 342 -85
485 -12 88 45 182 153 221 257 l22 57 5 1899 5 1898 1570 -1993 c863 -1097
1584 -2010 1602 -2030 97 -108 363 -169 537 -124 188 49 334 198 378 386 10
43 13 585 13 2659 l0 2605 -23 65 c-78 218 -250 331 -482 317 -194 -11 -345
-121 -411 -298 l-24 -64 -5 -1914 -5 -1913 -1588 2025 c-874 1115 -1602 2038
-1619 2052 -108 91 -356 139 -512 100z"/>
<path d="M36370 9373 c-202 -34 -375 -188 -425 -380 -22 -85 -22 -5199 0
-5282 35 -134 142 -269 255 -324 113 -54 258 -72 382 -46 198 41 377 215 417
407 8 38 11 781 11 2610 0 2815 4 2620 -62 2744 -38 72 -153 183 -228 220
-100 50 -238 70 -350 51z"/>
<path d="M38298 9365 c-129 -32 -265 -131 -321 -233 -76 -140 -76 -354 0 -494
33 -61 134 -158 198 -191 128 -64 88 -61 893 -65 l732 -3 0 -2292 c0 -2009 2
-2300 15 -2356 45 -188 194 -336 390 -386 132 -34 332 -10 448 52 108 59 204
170 249 289 l23 59 3 2317 2 2317 733 3 732 3 76 26 c176 60 290 180 329 348
18 77 8 231 -20 304 -48 126 -163 237 -301 288 l-64 24 -2030 2 c-1706 1
-2039 -1 -2087 -12z"/>
<path d="M44106 9364 c-173 -42 -319 -185 -370 -364 -15 -50 -16 -300 -14
-2661 l3 -2605 37 -76 c64 -129 206 -244 368 -298 83 -28 246 -38 321 -20 127
30 222 108 284 233 66 134 65 117 65 1085 l0 873 908 -4 c898 -3 908 -3 990
-25 248 -66 415 -225 477 -457 11 -40 19 -134 25 -285 16 -399 64 -630 182
-865 61 -121 104 -181 202 -283 156 -162 254 -222 432 -267 219 -56 424 -22
545 92 103 96 149 194 149 318 0 170 -84 316 -240 419 -38 25 -81 58 -96 73
-59 62 -93 180 -114 388 -29 304 -69 560 -106 678 -75 239 -270 518 -470 669
-30 22 -53 44 -52 48 2 4 40 36 86 70 355 266 631 708 712 1140 67 353 -2 820
-169 1153 -252 501 -691 847 -1218 959 l-108 23 -1385 2 c-1172 1 -1394 -1
-1444 -13z m2716 -1004 c193 -59 389 -290 462 -544 99 -342 25 -799 -181
-1114 -54 -83 -168 -192 -243 -232 l-65 -35 -997 -3 -998 -2 0 975 0 975 979
0 c948 0 981 -1 1043 -20z"/>
<path d="M50090 9373 c-202 -34 -375 -188 -425 -380 -22 -85 -22 -5199 0
-5282 35 -134 142 -269 255 -324 113 -54 258 -72 382 -46 198 41 377 215 417
407 8 38 11 781 11 2610 0 2815 4 2620 -62 2744 -38 72 -153 183 -228 220
-100 50 -238 70 -350 51z"/>
</g>
</svg>
