<?xml version="1.0" encoding="UTF-8"?>
<svg id="Layer_2" data-name="Layer 2" xmlns="http://www.w3.org/2000/svg" xmlns:xlink="http://www.w3.org/1999/xlink" viewBox="0 0 1044.55 177.65">
  <defs>
    <style>
      .cls-1 {
        fill: url(#linear-gradient);
      }

      .cls-1, .cls-2 {
        stroke-width: 0px;
      }

      .cls-2 {
        fill: #fff;
      }
    </style>
    <linearGradient id="linear-gradient" x1="766.23" y1="94.35" x2="1044.55" y2="94.35" gradientUnits="userSpaceOnUse">
      <stop offset="0" stop-color="#0568ce"/>
      <stop offset="0" stop-color="#046cd1"/>
      <stop offset=".05" stop-color="#0282e2"/>
      <stop offset=".1" stop-color="#0193ef"/>
      <stop offset=".17" stop-color="#009ff8"/>
      <stop offset=".25" stop-color="#00a6fd"/>
      <stop offset=".5" stop-color="#00a8ff"/>
      <stop offset="1" stop-color="#15eefd"/>
    </linearGradient>
  </defs>
  <g id="Layer_5" data-name="Layer 5">
    <g>
      <path class="cls-2" d="m252.37,63.32v87.48h-23.29l-2.58-6.19c-7.16,5.8-16.24,9.15-26.4,9.15-26.75,0-45.87-19.51-45.87-46.7s19.12-46.38,45.87-46.38c10.3,0,19.51,3.44,26.73,9.4l3.08-6.76h22.46Zm-28.66,43.81c0-11.36-8.3-19.88-19.58-19.88s-19.58,8.53-19.58,19.88,8.3,19.95,19.58,19.95,19.58-8.53,19.58-19.95Z"/>
      <path class="cls-2" d="m305.1,153.76c-23.84,0-38.33-12.59-38.61-31.55h29c0,6.4,4.45,9.34,10.17,9.34,4.41,0,8.59-2.25,8.59-6.77,0-5.05-6.62-6.49-15.03-7.88-13.56-2.2-31.55-6.29-31.55-27.51,0-17.54,14.94-28.86,37.36-28.86s36.71,11.85,37.06,29.58h-28.22c0-5.58-3.76-8.18-9.21-8.18-4.83,0-8.08,2.39-8.08,6.45,0,4.98,6.69,6.14,15,7.62,13.82,2.45,32.19,5.33,32.19,27.51,0,18.28-15.43,30.25-38.68,30.25h0Z"/>
      <path class="cls-2" d="m416.05,124.5v26.39h-20.73c-19.35,0-31.1-11.83-31.1-31.27v-33.01h-16.01v-7.04l39.2-41.74h6.19v25.58h21.98v23.21h-21.22v27.84c0,6.26,3.78,10.04,10.14,10.04h11.57Z"/>
      <path class="cls-2" d="m487.08,62.99v27.57h-11.7c-10.67,0-15.14,4.68-15.14,15.84v44.49h-30.13V63.41h20.19l4.7,9.71c6.17-7.14,13.68-10.12,24.1-10.12h7.98Z"/>
      <path class="cls-2" d="m587.16,106.32c0,2.64-.23,5.27-.62,7.98h-64.96c1.97,10.03,8.35,15.22,17.86,15.22,7.04,0,12.92-3.08,15.82-8.2h29.99c-6.16,19.96-23.85,32.44-45.8,32.44-27.29,0-47.52-19.95-47.52-46.68s20.06-46.54,47.52-46.54,47.72,20.12,47.72,45.78h0Zm-65.05-8.71h35.37c-2.64-8.74-8.95-13.46-18.04-13.46s-14.89,4.77-17.33,13.46Z"/>
      <path class="cls-2" d="m600.86,63.41h30.13v87.48h-30.13V63.41Zm.23-36.52h29.67v25.57h-29.67v-25.57Z"/>
      <path class="cls-2" d="m743.06,63.32v87.48h-23.29l-2.58-6.19c-7.16,5.8-16.24,9.15-26.4,9.15-26.75,0-45.87-19.51-45.87-46.7s19.12-46.38,45.87-46.38c10.3,0,19.51,3.44,26.73,9.4l3.08-6.76h22.46Zm-28.66,43.81c0-11.36-8.3-19.88-19.58-19.88s-19.58,8.53-19.58,19.88,8.3,19.95,19.58,19.95,19.58-8.53,19.58-19.95Z"/>
    </g>
    <g>
      <path class="cls-1" d="m867.39,36.21v113.4h-25.84l-45.05-61.54v61.54h-30.28V36.21h27.34l43.54,59.5v-59.5h30.27Z"/>
      <path class="cls-1" d="m974.93,105.05c0,2.64-.23,5.27-.62,7.98h-64.96c1.97,10.03,8.34,15.22,17.86,15.22,7.04,0,12.92-3.08,15.82-8.2h29.98c-6.16,19.96-23.85,32.44-45.8,32.44-27.3,0-47.52-19.95-47.52-46.68s20.06-46.54,47.52-46.54,47.72,20.12,47.72,45.78h0Zm-65.05-8.71h35.37c-2.64-8.74-8.95-13.46-18.04-13.46s-14.89,4.77-17.33,13.46Z"/>
      <path class="cls-1" d="m1044.55,123.22v26.39h-20.73c-19.35,0-31.1-11.83-31.1-31.27v-33.01h-16.01v-7.04l39.19-41.74h6.19v25.58h21.98v23.21h-21.22v27.84c0,6.26,3.78,10.04,10.14,10.04h11.57Z"/>
    </g>
    <g>
      <path class="cls-2" d="m0,8.5c.48-1.44,1.48-2,2.95-2,17.65.01,35.29.01,52.94.01,1.09,0,2.17.02,3.25.02,1.29,0,2.5-.02,3.91.02.55.02.74,0,.74.46,0,.35.08,3.8.15,5.05s.58,2.51,1.77,3.07c.16.07.32.13.49.18.78.21,1.6.2,2.4.2,14.56.05,29.06,6.13,39.94,15.68,2.75,2.42,5.29,5.07,7.56,7.94,1.03,1.3,2.01,2.65,2.93,4.04,3.73,5.65,6.5,11.92,8.11,18.49,1.14,4.67,1.78,9.44,2.05,14.24.04.63.1,1.28.26,1.89.3,1.15,1.45,1.98,2.75,2,1.45.02,2.91,0,4.36,0,.29,0,.59,0,1.01,0-.86,5-2.52,9.61-4.68,14.05-2.18,4.48-4.97,8.56-8.28,12.28-3.32,3.73-7.13,6.88-11.34,9.7.41.77.79,1.51,1.19,2.24,1.4,2.57,2.81,5.14,4.22,7.71,2.2,4.01,4.42,8.02,6.62,12.04,1.36,2.48,2.7,4.98,4.05,7.46,1.74,3.2,3.48,6.39,5.23,9.59,1.36,2.48,2.73,4.96,4.09,7.44,1.91,3.49,3.83,6.97,5.72,10.46.4.73.89,1.42.9,2.33.03,1.59-.85,2.54-2.45,2.54-1.52,0-3.04,0-4.57,0-15.18,0-30.37,0-45.55,0h-1.49c-.97-.33-1.36-1.04-1.75-1.76-1.16-2.17-2.31-4.34-3.46-6.51-2.59-4.88-5.17-9.76-7.77-14.64-1.97-3.72-3.95-7.44-5.93-11.16-1.68-3.15-3.35-6.31-5.03-9.46-1.13-2.11-2.26-4.22-3.39-6.32-.16-.29-.33-.58-.52-.9h-12.68c0,.38,0,.74,0,1.1,0,15.4,0,30.8,0,46.19,0,.37,0,.75-.01,1.12-.08,1.5-.96,2.33-2.48,2.33-15.25,0-30.5,0-45.75,0-1.49,0-2.46-.98-2.47-2.47,0-1.25,0-2.5,0-3.76,0-53.64,0-107.28,0-160.92v-2Zm97.17,41.63c1.5,1.71,2.86,3.52,4.06,5.38,1.58,2.43,2.89,5.04,3.92,7.75.93,2.46,1.63,5,2.06,7.59.19,1.15.34,2.3.43,3.46s.04,2.26.44,3.36c.36.99,1.12,1.64,2.19,1.7,1.65.09,3.29.09,4.94.18,2.63.14,5.28-.03,7.91.07,1.43.05,2.97-1.25,2.89-2.96-.11-2.42.01-4.84-.41-7.25-1.36-7.74-3.64-15.37-7.64-22.17-3.92-6.67-9.18-12.54-15.41-17.11-2.49-1.83-5.13-3.43-7.85-4.89-7.23-3.84-15.17-6-23.33-6.56-1.38-.1-2.76-.14-4.15-.12-1.89.02-2.97,1.09-3.15,2.99-.47,4.12-.39,8.43-.24,12.57.03,1.07.47,2.12,1.53,2.54.53.22,1.12.26,1.69.31,3.28.27,6.51.44,9.71,1.21s6.29,1.9,9.24,3.33c3.46,1.67,6.54,3.89,9.27,6.6.66.65,1.29,1.33,1.9,2.02Zm-1.54,29.06c2.13,0,4.26.02,6.39,0,1.63-.02,2.87-1.54,2.65-3.15-.09-.66-.11-1.33-.19-2-.15-1.43-.22-2.88-.5-4.29-.67-3.41-1.83-6.73-3.46-9.81-1.01-1.91-2.22-3.72-3.57-5.42-1.19-1.49-2.58-2.92-3.91-4.28-5.18-5.32-12.23-8.54-19.51-9.68-2.33-.36-4.63-.39-6.98-.39-1.09,0-1.85.52-2.39,1.43-.35.59-.52,1.21-.52,1.92.02,3.95,0,7.9,0,11.84,0,1.45.71,3.04,2.39,3.12,3.3.16,6.27.36,9.31,1.81,3.41,1.63,6.11,4.29,8.21,7.38,1.44,2.12,2.28,4.5,2.5,7.06.06.73.07,1.49.33,2.17.47,1.25,1.88,2.4,3.26,2.33,1.99-.09,3.99-.02,5.98-.02Zm-27.79-16.67c-4.99-.1-9.86,2.68-12.28,7.1-.77,1.41-1.29,2.94-1.54,4.53-1.11,7.09,3.54,13.53,10.35,15.35,3.16.84,6.6.62,9.51-.93,3.31-1.76,5.93-4.7,7.04-8.31,2.07-6.76-1.65-14.04-8.1-16.71-1.57-.65-3.27-.99-4.98-1.03Z"/>
      <path class="cls-2" d="m144.76,77.61c-.27.04-.56.11-.85.11-1.89,0-3.79,0-5.68-.04-1.79-.03-3.58-.09-5.37-.15-.29,0-.58-.07-.91-.12-.09-.61-.22-1.13-.25-1.66-.1-1.45-.16-2.9-.23-4.34-.11-2.19-.45-4.36-.89-6.5-.72-3.54-1.66-7.02-2.97-10.39-1.27-3.28-2.78-6.44-4.55-9.48-1.97-3.4-4.24-6.58-6.82-9.54-2.15-2.47-4.43-4.81-6.96-6.91-2.08-1.73-4.2-3.39-6.45-4.88-3.13-2.07-6.44-3.83-9.89-5.31-3.67-1.57-7.45-2.78-11.34-3.65-2.37-.53-4.76-.93-7.17-1.16-2.42-.23-4.84-.39-7.27-.37-.16,0-.33-.03-.56-.06-.03-.28-.09-.54-.08-.8.01-3.45.02-6.9.05-10.35,0-.6.11-1.2.17-1.85.26-.06.48-.15.7-.15,2.57-.04,5.13.08,7.68.37,1.91.22,3.83.36,5.71.7,2.19.39,4.35.92,6.51,1.44,4.11.98,8.07,2.45,11.92,4.16,2.65,1.18,5.23,2.52,7.73,4.01,2.35,1.4,4.61,2.93,6.81,4.54,3.91,2.86,7.45,6.15,10.76,9.67,2.03,2.16,3.92,4.46,5.65,6.87,2.23,3.1,4.25,6.31,6.02,9.7,1.43,2.73,2.67,5.53,3.8,8.39.99,2.51,1.74,5.1,2.45,7.7.61,2.25,1.07,4.52,1.46,6.81.22,1.29.39,2.6.52,3.9.21,2.11.38,4.23.55,6.34.08.98.02,1.95-.26,3Z"/>
      <path class="cls-2" d="m66.4,34.64c-.43-.8-.21-1.62-.21-2.41,0-.44.09-.87.09-1.31.03-2.74.04-5.48.06-8.21,0-.33,0-.66,0-1.09.38-.05.66-.12.95-.13,2.36-.03,4.72.09,7.07.38,3.96.49,7.83,1.31,11.6,2.63,5.07,1.77,9.79,4.18,14.14,7.31,1.97,1.42,3.83,2.97,5.64,4.6,2.47,2.23,4.62,4.74,6.63,7.36,1.79,2.33,3.33,4.82,4.72,7.42,1.42,2.66,2.58,5.42,3.56,8.26.84,2.42,1.46,4.91,1.9,7.43.38,2.16.75,4.31.83,6.51.03.91.11,1.82.16,2.72.02.33,0,.66,0,1.09-.38.06-.67.14-.95.14-2.33-.05-4.66-.12-6.99-.17-1.47-.03-2.96-.1-4.43.03-.2.02-.42,0-.59-.1-.22-.14-.25-.4-.3-.64-.06-.32-.1-.63-.13-.95-.06-.64-.07-1.28-.08-1.92-.02-1-.18-1.99-.33-2.98-.29-1.96-.74-3.9-1.34-5.79-1.04-3.28-2.38-6.45-4.19-9.4-1.24-2.02-2.61-3.94-4.12-5.75-1.16-1.39-2.57-2.58-3.87-3.86-.12-.12-.26-.22-.38-.34-1.77-1.79-3.85-3.18-5.97-4.5-3.6-2.23-7.47-3.84-11.59-4.9-2.66-.68-5.34-1.09-8.07-1.2-1.24-.05-2.49-.15-3.83-.23Z"/>
      <path class="cls-2" d="m89.01,76.64c-.34-1.81-.59-3.54-1.01-5.23-.44-1.77-1.17-3.44-2.16-4.99-.93-1.46-1.91-2.86-3.16-4.06-3.04-2.92-6.54-4.95-10.72-5.75-1.4-.27-2.8-.41-4.22-.41-.56,0-1.12-.13-1.76-.21-.2-4.34.12-8.58.15-12.8.75-.45,1.49-.32,2.23-.29.3.01.6.1.9.1,2.62-.02,5.15.54,7.67,1.18,3.26.83,6.28,2.27,9.13,4.01,1.35.82,2.54,1.89,3.79,2.86,1.53,1.18,2.86,2.58,4.09,4.06,1.14,1.38,2.26,2.78,3.13,4.35.41.74.79,1.48,1.22,2.21,1.54,2.62,2.33,5.52,3.04,8.44.48,2,.77,4.04.73,6.11,0,.2-.02.39-.04.58-1.04.28-11.29.16-13.02-.13Z"/>
      <path class="cls-2" d="m78.92,76.49c-.08,6.19-5.05,11.21-11.25,11.15-6.19-.05-11.16-4.84-11.17-11.13,0-6.5,4.9-11.34,11.3-11.29,6.3.04,11.05,4.96,11.12,11.27Z"/>
    </g>
  </g>
</svg>